<svg width="1536" height="1152" viewBox="0 0 1536 1152" fill="none" xmlns="http://www.w3.org/2000/svg">
<g clip-path="url(#clip0_1_2)">
<path d="M678.096 328.868H640.737C635.878 328.868 631.943 332.803 631.943 337.66V674.664C631.943 678.009 633.844 681.061 636.842 682.546L880.175 802.736C882.678 803.967 885.622 803.94 888.099 802.669L1249.84 615.994C1255.69 612.969 1262.66 617.225 1262.66 623.809V692.958C1262.66 739.73 1236.12 782.448 1194.18 803.178L1103.91 847.796" stroke="#F1792B" stroke-width="2" stroke-miterlimit="10"/>
<path d="M679.903 847.796L558.591 779.651C526.935 761.879 507.339 728.409 507.339 692.115V469.828C507.339 460.259 515.102 452.497 524.673 452.497H631.943" stroke="#F1792B" stroke-width="2" stroke-miterlimit="10"/>
<path d="M1093.12 328.868H1164.2" stroke="#F1792B" stroke-width="2" stroke-miterlimit="10"/>
<path d="M756.547 452.497V587.328C756.547 598.048 762.477 607.897 771.954 612.929L870.43 665.148C879.01 669.699 889.29 669.645 897.816 665.028L996.734 611.444C1006.09 606.372 1011.91 596.602 1011.91 585.963V452.497" stroke="#F1792B" stroke-width="2" stroke-miterlimit="10"/>
<path d="M507.339 335.961V301.674C507.339 247.367 551.376 203.338 605.694 203.338H1164.31C1218.62 203.338 1262.66 247.367 1262.66 301.674V433.507C1262.66 443.999 1254.16 452.497 1243.67 452.497H894.577C889.29 452.497 885.007 456.78 885.007 462.066V562.624" stroke="#F1792B" stroke-width="2" stroke-miterlimit="10"/>
</g>
<defs>
<clipPath id="clip0_1_2">
<rect width="758" height="647" fill="white" transform="translate(506 202)"/>
</clipPath>
</defs>
</svg>
